PathFileType  4	(X/Y/Z) C:\Inversekin\DARPA\DARPA11\Files_W_HJCs\
DataRate	CameraRate	NumFrames	NumMarkers	Units	OrigDataRate	OrigDataStartFrame	OrigNumFrames
  100.0		  100.0		    6		     41		 mm	  100.0	      1	    238
Frame#	Time	R.Shoulder			L.Shoulder			R.Clavicle			L.Clavicle			R.Biceps			R.Elbow			R.Forearm			R.Wrist			L.Biceps			L.Elbow			L.Forearm			L.Wrist			R.ASIS			L.ASIS			R.PSIS			S2			L.PSIS			R.TH1			R.TH2			R.TH3			R.Knee			R.SH1			R.SH2			R.SH3			R.SH4			R.Ankle			R.Heel			R.MT5			R.Toe			L.TH1			L.TH2			L.TH3			L.TH4			L.Knee			L.SH1			L.SH2			L.SH3			L.Ankle			L.Heel			L.MT5			L.Toe			
		X1	Y1	Z1	X2	Y2	Z2	X3	Y3	Z3	X4	Y4	Z4	X5	Y5	Z5	X6	Y6	Z6	X7	Y7	Z7	X8	Y8	Z8	X9	Y9	Z9	X10	Y10	Z10	X11	Y11	Z11	X12	Y12	Z12	X13	Y13	Z13	X14	Y14	Z14	X15	Y15	Z15	X16	Y16	Z16	X17	Y17	Z17	X18	Y18	Z18	X19	Y19	Z19	X20	Y20	Z20	X21	Y21	Z21	X22	Y22	Z22	X23	Y23	Z23	X24	Y24	Z24	X25	Y25	Z25	X26	Y26	Z26	X27	Y27	Z27	X28	Y28	Z28	X29	Y29	Z29	X30	Y30	Z30	X31	Y31	Z31	X32	Y32	Z32	X33	Y33	Z33	X34	Y34	Z34	X35	Y35	Z35	X36	Y36	Z36	X37	Y37	Z37	X38	Y38	Z38	X39	Y39	Z39	X40	Y40	Z40	X41	Y41	Z41	

1	0.00000	-652.630	1529.542	-94.520	-629.159	1534.957	-437.336	-583.282	1487.408	-236.925	-577.345	1487.629	-286.481	-627.674	1267.574	-13.972	-679.999	1181.338	19.638	-592.069	1060.299	34.504	-544.266	947.570	41.388	-617.138	1310.397	-525.810	-643.076	1190.903	-558.921	-567.569	1069.970	-563.515	-522.124	963.962	-552.786	-567.049	1021.099	-129.947	-553.011	1021.609	-382.132	-772.709	1015.859	-222.513	-781.209	994.563	-268.227	-767.791	1018.813	-313.747	-559.003	799.274	-44.428	-658.053	755.685	-55.795	-610.400	634.735	-70.322	-535.854	532.972	-72.377	-583.870	458.470	-68.584	-665.567	386.279	-77.306	-639.363	517.746	-90.705	-728.947	439.012	-105.500	-838.277	272.831	-132.182	-921.999	285.032	-210.105	-856.612	137.677	-79.364	-750.379	56.061	-140.936	-496.462	808.067	-403.391	-487.421	679.862	-372.485	-585.161	797.754	-461.122	-594.485	668.724	-419.396	-559.933	528.411	-372.461	-534.388	416.124	-351.729	-618.999	430.990	-396.772	-638.769	316.417	-385.876	-608.572	108.068	-342.461	-704.086	35.740	-304.790	-504.449	38.013	-358.711	-412.723	57.077	-251.120
2	0.01000	-641.082	1531.254	-94.682	-616.611	1537.394	-436.863	-571.050	1489.569	-236.788	-565.090	1489.648	-286.340	-617.830	1269.408	-13.618	-670.970	1183.379	19.628	-583.543	1061.742	35.433	-536.413	949.130	42.873	-602.009	1313.206	-525.632	-625.929	1193.231	-558.859	-548.216	1073.730	-562.423	-500.542	968.612	-550.541	-554.318	1023.732	-131.127	-542.005	1022.786	-383.086	-760.640	1017.868	-222.269	-769.385	996.651	-267.993	-755.892	1020.929	-313.391	-542.355	804.188	-44.892	-639.854	757.731	-54.628	-591.018	638.367	-68.594	-513.738	537.300	-72.899	-559.725	460.957	-68.851	-639.639	385.776	-77.118	-617.103	518.331	-90.764	-703.834	436.828	-105.184	-807.973	266.653	-130.959	-893.159	274.396	-208.025	-819.410	131.475	-76.750	-709.993	54.104	-138.799	-487.082	807.374	-404.449	-480.725	679.264	-373.362	-577.274	798.524	-461.643	-588.250	669.526	-419.797	-557.571	528.335	-373.171	-532.464	416.456	-352.951	-617.545	431.603	-396.716	-638.084	317.408	-385.711	-608.256	108.300	-342.551	-703.413	35.545	-304.493	-504.411	37.978	-358.760	-412.534	56.746	-251.223
3	0.02000	-629.317	1532.562	-94.786	-604.011	1539.711	-436.478	-559.513	1490.758	-236.601	-553.161	1491.271	-285.872	-608.245	1271.059	-12.938	-661.526	1184.995	19.642	-574.740	1063.226	36.578	-528.369	950.477	44.670	-587.297	1315.703	-525.729	-609.069	1195.440	-558.819	-528.985	1077.357	-561.040	-478.863	973.386	-548.342	-543.069	1026.148	-132.187	-531.006	1023.457	-384.232	-748.434	1019.325	-221.878	-757.646	998.417	-267.756	-744.543	1023.005	-313.138	-526.406	808.539	-44.941	-622.371	760.232	-53.258	-571.722	641.806	-66.956	-493.528	542.797	-73.400	-535.763	463.493	-69.164	-613.501	384.981	-76.970	-595.758	519.466	-91.112	-679.419	434.511	-104.836	-777.149	259.477	-129.373	-863.634	262.218	-205.721	-780.840	124.129	-74.317	-668.242	52.382	-137.091	-478.615	806.704	-405.456	-474.013	678.534	-374.007	-569.361	798.885	-461.863	-582.188	670.098	-420.040	-554.929	528.316	-373.882	-530.961	416.230	-354.158	-616.547	432.312	-396.379	-637.944	318.220	-385.221	-607.878	108.425	-342.421	-703.284	35.891	-304.405	-504.379	37.940	-358.706	-412.329	56.468	-251.222
4	0.03000	-617.499	1533.806	-94.871	-591.465	1541.797	-436.160	-547.240	1492.338	-236.372	-540.958	1492.670	-285.606	-598.527	1272.317	-12.361	-652.715	1186.771	19.748	-566.034	1064.463	37.727	-520.372	951.495	46.425	-572.596	1318.064	-525.798	-592.393	1197.335	-558.804	-509.665	1080.781	-559.642	-457.635	978.178	-545.950	-530.645	1027.999	-133.474	-519.900	1024.076	-385.324	-737.014	1020.849	-221.387	-746.208	999.977	-267.167	-733.038	1024.537	-312.625	-509.016	813.264	-45.889	-605.306	762.990	-52.072	-553.052	645.468	-65.475	-472.297	546.667	-74.158	-512.553	466.026	-69.661	-587.912	384.043	-76.825	-575.388	519.648	-91.710	-655.232	431.588	-104.364	-745.619	251.230	-127.609	-833.497	248.727	-202.911	-740.936	116.219	-72.191	-624.832	50.995	-136.283	-470.867	805.337	-406.147	-468.107	677.229	-374.366	-560.752	798.485	-461.988	-576.391	670.617	-420.057	-552.293	528.387	-374.271	-529.371	416.034	-355.084	-615.397	432.748	-395.976	-637.357	318.894	-384.652	-607.567	108.746	-342.152	-703.349	36.188	-304.248	-504.257	37.861	-358.555	-412.277	56.184	-251.305
5	0.04000	-605.851	1534.710	-94.894	-578.938	1543.399	-435.847	-535.144	1493.322	-236.091	-528.674	1493.809	-285.478	-588.730	1273.264	-11.795	-643.576	1188.259	19.687	-557.492	1065.568	39.019	-512.179	952.424	48.409	-557.894	1319.927	-525.812	-575.956	1199.083	-558.904	-490.700	1084.169	-558.241	-436.517	982.963	-543.333	-519.033	1030.213	-134.498	-509.258	1024.338	-386.444	-725.588	1022.065	-220.922	-734.787	1001.168	-266.573	-721.750	1025.813	-312.000	-493.346	817.527	-46.104	-588.159	765.390	-50.778	-534.361	648.902	-64.227	-451.379	550.277	-75.150	-489.577	467.993	-70.210	-562.262	382.730	-76.429	-553.772	518.726	-92.558	-630.814	427.666	-103.834	-713.422	242.302	-125.696	-802.306	233.895	-199.813	-699.666	107.612	-70.200	-580.755	49.987	-135.736	-463.042	804.244	-406.659	-461.494	676.078	-374.471	-552.870	798.292	-462.041	-570.348	671.166	-419.898	-549.213	528.111	-374.449	-527.393	415.930	-355.589	-613.907	433.129	-395.685	-636.413	319.286	-383.961	-607.220	109.025	-341.814	-703.447	36.680	-303.993	-504.219	37.990	-358.419	-412.062	55.735	-251.304
6	0.05000	-594.025	1535.373	-94.929	-566.303	1544.879	-435.600	-523.049	1494.139	-235.864	-516.209	1494.844	-285.087	-578.729	1273.907	-11.285	-634.436	1189.205	20.148	-548.903	1066.183	40.300	-503.756	953.238	50.530	-543.493	1321.725	-525.919	-559.635	1200.452	-558.873	-472.076	1087.417	-556.849	-415.345	987.799	-540.771	-506.601	1031.439	-135.721	-497.414	1024.311	-387.622	-714.223	1022.833	-220.284	-723.403	1001.938	-265.901	-710.401	1026.698	-311.220	-477.694	821.163	-46.834	-571.708	767.772	-49.669	-515.532	651.474	-63.408	-431.785	553.991	-76.261	-467.261	469.847	-70.784	-536.987	380.415	-76.138	-533.734	517.236	-93.125	-606.652	422.684	-102.827	-680.190	232.788	-123.639	-770.410	218.748	-196.413	-657.393	99.143	-68.318	-535.623	49.561	-135.708	-454.783	802.558	-406.990	-455.650	674.691	-374.402	-544.977	798.139	-462.091	-564.287	671.377	-419.659	-546.178	528.007	-374.500	-525.803	415.431	-355.656	-611.800	433.493	-395.405	-635.225	319.809	-383.569	-607.045	109.219	-341.439	-703.303	37.112	-303.743	-504.088	38.101	-358.273	-411.828	55.482	-251.214
